<svg xmlns="http://www.w3.org/2000/svg" viewBox="0 0 24 24" aria-hidden="true">
  <path fill="#4B4102" d="M12 .297C5.373.297 0 5.67 0 12.297c0 5.302 3.438 9.8 8.207 11.387.6.11.793-.26.793-.577 0-.285-.01-1.04-.015-2.04-3.338.726-4.042-1.61-4.042-1.61-.546-1.387-1.333-1.757-1.333-1.757-1.09-.744.082-.729.082-.729 1.205.085 1.84 1.238 1.84 1.238 1.07 1.835 2.807 1.305 3.492.998.108-.775.418-1.305.762-1.605-2.665-.304-5.467-1.335-5.467-5.932 0-1.31.47-2.382 1.236-3.22-.124-.304-.536-1.527.117-3.176 0 0 1.008-.322 3.301 1.23a11.5 11.5 0 013.003-.404c1.02.005 2.047.138 3.003.404 2.291-1.552 3.297-1.23 3.297-1.23.655 1.649.243 2.872.12 3.176.77.838 1.235 1.91 1.235 3.22 0 4.61-2.807 5.625-5.479 5.922.43.37.814 1.096.814 2.208 0 1.593-.015 2.877-.015 3.268 0 .32.192.694.8.576C20.565 22.092 24 17.594 24 12.297 24 5.67 18.627.297 12 .297z"/>
</svg>