<svg width="1187" height="284" viewBox="0 0 1187 284" fill="none" xmlns="http://www.w3.org/2000/svg">
<path d="M904.092 74.7759C1105.41 -25.5326 1185.66 6.36781 1185.66 6.35945C1185.66 6.35119 1185.66 32.1521 1185.66 32.1521L1185.27 257.976L0.13852 254.736L0.137999 187.961C0.137999 187.961 101.408 150.131 259.616 178.942C417.823 207.754 489.741 190.001 542.868 158.593C756.934 32.0406 735.468 158.795 904.092 74.7759Z" fill="#BE9F32"/>
<path d="M1026.86 96.195C1186.61 16.6011 1186.61 32.1521 1186.61 32.1521L1186.61 281.833L0.136989 281.833L0.137064 193.767C61.9464 183.832 224.18 171.551 382.388 200.362C540.596 229.173 612.513 211.42 665.64 180.012C879.706 53.4598 858.24 180.214 1026.86 96.195Z" fill="#F1E0A4"/>
</svg>
